<svg width="24" height="24" viewBox="0 0 24 24" fill="none" xmlns="http://www.w3.org/2000/svg">
<path d="M11.6228 2.03449C11.5687 2.05749 4.6838 4.9415 4.6853 4.9405C4.6953 4.9365 4.7013 4.9545 4.7478 4.9405C4.7866 4.9295 4.7911 4.92649 4.904 4.90949C4.922 4.90749 4.9532 4.91049 4.9666 4.90949C4.4768 4.92249 3.9978 5.25649 3.9978 5.90949C3.9978 10.4225 4.1513 12.2585 4.9353 14.5025C5.9653 17.4515 8.0132 19.8245 11.4978 21.8155C11.8052 21.9915 12.1903 21.9915 12.4978 21.8155C15.9811 19.8255 18.0297 17.4785 19.0603 14.5345C19.8443 12.2945 19.9978 10.4315 19.9978 5.9405C19.9978 5.5415 19.771 5.19249 19.404 5.03449L12.4353 2.03449C12.1839 1.92649 11.8745 1.92649 11.6228 2.03449ZM11.9978 6.9405C12.5501 6.9405 12.9978 7.3885 12.9978 7.9405V11.9405C12.9978 12.4925 12.5501 12.9405 11.9978 12.9405C11.4455 12.9405 10.9978 12.4925 10.9978 11.9405V7.9405C10.9978 7.3885 11.4455 6.9405 11.9978 6.9405ZM11.9978 13.9405C12.5501 13.9405 12.9978 14.3885 12.9978 14.9405C12.9978 15.4925 12.5501 15.9405 11.9978 15.9405C11.4455 15.9405 10.9978 15.4925 10.9978 14.9405C10.9978 14.3885 11.4455 13.9405 11.9978 13.9405Z" fill="black"/>
</svg>
