<svg width="24" height="24" viewBox="0 0 24 24" fill="none" xmlns="http://www.w3.org/2000/svg">
<path d="M11.9989 1.95337C6.4761 1.95337 1.9989 6.43037 1.9989 11.9534C1.9989 17.4764 6.4761 21.9534 11.9989 21.9534C17.5219 21.9534 21.9989 17.4764 21.9989 11.9534C21.9989 6.43037 17.5219 1.95337 11.9989 1.95337ZM8.9989 7.95337C9.2547 7.95337 9.5224 8.03937 9.7177 8.23438L11.9989 10.5154L14.2799 8.23438C14.4759 8.03937 14.7429 7.95337 14.9989 7.95337C15.2549 7.95337 15.5219 8.03937 15.7179 8.23438C16.1079 8.62537 16.1079 9.28136 15.7179 9.67236L13.4369 11.9534L15.7179 14.2344C16.1079 14.6254 16.1079 15.2814 15.7179 15.6724C15.3269 16.0624 14.6709 16.0624 14.2799 15.6724L11.9989 13.3914L9.7177 15.6724C9.3272 16.0624 8.6707 16.0624 8.2801 15.6724C7.8896 15.2814 7.8896 14.6254 8.2801 14.2344L10.5609 11.9534L8.2801 9.67236C7.8896 9.28136 7.8896 8.62537 8.2801 8.23438C8.4755 8.03937 8.743 7.95337 8.9989 7.95337Z" fill="black"/>
</svg>
